<?xml version="1.0" encoding="utf-8"?>
<!-- Generator: Adobe Illustrator 27.3.1, SVG Export Plug-In . SVG Version: 6.00 Build 0)  -->
<svg version="1.1" id="Layer_1" xmlns="http://www.w3.org/2000/svg" xmlns:xlink="http://www.w3.org/1999/xlink" x="0px" y="0px"
	 viewBox="0 0 104 102" style="enable-background:new 0 0 104 102;" xml:space="preserve">
<style type="text/css">
	.st0{fill:#A775F1;}
</style>
<path class="st0" d="M104,102V59.7H84.1c0-5.9,0.7-11.2,2.1-15.9c1.4-4.8,3.4-9.3,6.1-13.6c2.7-4.3,6.6-7.9,11.7-10.8V0
	c-9.8,4.3-17.7,9.9-23.9,16.8C74,23.8,69.4,31.4,66.5,39.6c-3,8.3-4.5,20.3-4.5,36.1V102H104z M42,102V59.7H22.1
	c0-5.9,0.7-11.2,2.1-15.9c1.4-4.8,3.4-9.3,6.1-13.6c2.7-4.3,6.6-7.9,11.7-10.8V0c-9.7,4.3-17.6,9.9-23.8,16.8
	C12,23.8,7.4,31.4,4.5,39.6C1.5,47.9,0,59.9,0,75.7V102H42z"/>
</svg>
