<svg xmlns="http://www.w3.org/2000/svg"  viewBox="0 0 48 48" width="48px" height="48px" baseProfile="basic"><path fill="#ff7501" d="M35,18v23h5c0-1,0-1.748,0-2.511V18H35z" opacity=".1"/><path fill="#ff7501" d="M34.25,18v23h5.563c-0.452-0.799-0.563-1.748-0.563-2.511V18H34.25z" opacity=".2"/><path fill="#ff7501" d="M33.5,18v23h6.126c-0.905-0.598-1.126-1.748-1.126-2.511V18H33.5z" opacity=".3"/><path fill="#ff7501" d="M32.75,18v23h6.69c-1.357-0.397-1.69-1.748-1.69-2.511V18H32.75z" opacity=".4"/><path fill="#ff7501" d="M32,18v23h7.253C37.443,40.804,37,39.252,37,38.489V18H32z" opacity=".5"/><linearGradient id="iP4szHCLglMCSnI3UO-gka" x1="25.776" x2="16.884" y1="42.294" y2="14.173" gradientUnits="userSpaceOnUse"><stop offset="0" stop-color="#ff6201"/><stop offset=".689" stop-color="#fdbd19"/><stop offset="1" stop-color="#fce724"/></linearGradient><path fill="url(#iP4szHCLglMCSnI3UO-gka)" d="M35,11H21l-4-4H6C4.9,7,4,7.9,4,9v29.068C4,39.687,5.313,41,6.932,41h32.524	C38.12,41.016,37,39.875,37,38.489V13C37,11.9,36.1,11,35,11z"/><path fill="#fe910d" d="M39.198,41C37.988,40.817,37,39.875,37,38.481V18v-2H12c-2.206,0-4,1.794-4,4v18 c0,1-0.626,3-1,3h30H39.198z" opacity=".1"/><path fill="#fe910d" d="M37,41h2.198C37.988,40.817,37,39.875,37,38.481V18v-1.667H12.369 c-0.76,0-1.831,0.256-2.393,0.686C8.997,17.629,8.333,18.739,8.333,20v17.941c0,0.093-0.007,0.256-0.019,0.367 c-0.096,1.06-0.617,2.516-1.014,2.601C7.29,40.916,7.28,40.949,7.269,41H37z" opacity=".2"/><path fill="#fe910d" d="M37,41h2.198C37.988,40.817,37,39.875,37,38.481V18v-1.333H12.738 c-0.608,0-1.908,0.205-2.357,0.549C9.378,17.703,8.667,18.771,8.667,20v17.882c0,0.075-0.005,0.276-0.015,0.364 c-0.077,1.066-0.588,2.4-1.05,2.571C7.571,40.839,7.539,40.911,7.506,41H37z" opacity=".3"/><path fill="#fe910d" d="M37,41h2.198C37.988,40.817,37,39.875,37,38.481V18v-1H13.108 c-0.456,0-1.985,0.154-2.322,0.412C9.758,17.777,9,18.803,9,20v17.823c0,0.056-0.004,0.295-0.011,0.362 c-0.057,1.073-0.559,2.285-1.087,2.541c-0.063,0.044-0.13,0.146-0.2,0.274H37z" opacity=".4"/><path fill="#fe910d" d="M37,41h2.198C37.988,40.817,37,39.875,37,38.481V18v-0.667H13.477 c-0.304,0-2.062,0.102-2.286,0.274C10.139,17.852,9.333,18.835,9.333,20v17.764c0,0.037-0.003,0.315-0.007,0.359 c-0.038,1.079-0.529,2.17-1.123,2.511C8.093,40.712,7.974,40.85,7.848,41H37z" opacity=".5"/><path fill="#fe910d" d="M37,41h2.198C37.988,40.817,37,39.875,37,38.481V18v-0.333H13.846 c-0.152,0-2.139,0.051-2.251,0.137C10.52,17.926,9.667,18.868,9.667,20v17.705c0,0.019-0.001,0.335-0.004,0.357 c-0.019,1.086-0.5,2.055-1.16,2.481C8.314,40.677,8.101,40.849,7.875,41H37z" opacity=".6"/><linearGradient id="iP4szHCLglMCSnI3UO-gkb" x1="-107.768" x2="-85.275" y1="43.07" y2="16.06" gradientTransform="matrix(-1 0 0 1 -71 0)" gradientUnits="userSpaceOnUse"><stop offset="0" stop-color="#f4805d" stop-opacity=".4"/><stop offset="1" stop-color="#ffcfae" stop-opacity=".2"/></linearGradient><path fill="url(#iP4szHCLglMCSnI3UO-gkb)" d="M13,18h29c1.1,0,2,0.9,2,2v18.583	C44,39.918,42.918,41,41.583,41H8c1.617,0,3-1.149,3-3V20C11,18.9,11.9,18,13,18z"/><linearGradient id="iP4szHCLglMCSnI3UO-gkc" x1="17.767" x2="46.142" y1="24.12" y2="44.336" gradientUnits="userSpaceOnUse"><stop offset="0" stop-color="ivory" stop-opacity=".2"/><stop offset="1" stop-color="#f4805d" stop-opacity=".4"/></linearGradient><path fill="url(#iP4szHCLglMCSnI3UO-gkc)" d="M42,18.5c0.827,0,1.5,0.673,1.5,1.5v18.583	c0,1.057-0.86,1.917-1.917,1.917H10.521c0.615-0.621,0.979-1.492,0.979-2.5V20c0-0.827,0.673-1.5,1.5-1.5H42 M42,18H13	c-1.1,0-2,0.9-2,2v18c0,1.851-1.383,3-3,3h33.583C42.918,41,44,39.918,44,38.583V20C44,18.9,43.1,18,42,18L42,18z"/></svg>