<svg xmlns="http://www.w3.org/2000/svg"  viewBox="0 0 48 48" width="48px" height="48px" baseProfile="basic"><path fill="#f2ca00" d="M40,11H4c-0.553,0-1,0.447-1,1v24c0,2.757,2.243,5,5,5h32c2.757,0,5-2.243,5-5V16	C45,13.243,42.757,11,40,11z"/><path fill="#324561" d="M40,20H8c-0.553,0-1-0.447-1-1s0.447-1,1-1h32c0.553,0,1,0.447,1,1S40.553,20,40,20z"/><path fill="#324561" d="M19.001,13c-0.367,0-0.72-0.202-0.896-0.553l-2.447-4.895C15.488,7.212,15.146,7,14.764,7H6	C5.448,7,5,7.448,5,8v4c0,0.553-0.447,1-1,1s-1-0.447-1-1V8c0-1.654,1.346-3,3-3h8.764c1.144,0,2.172,0.636,2.684,1.658l2.447,4.895	c0.247,0.494,0.047,1.095-0.447,1.342C19.304,12.966,19.151,13,19.001,13z"/></svg>